<?xml version="1.0" encoding="utf-8"?>
<!-- Generator: Adobe Illustrator 16.0.3, SVG Export Plug-In . SVG Version: 6.00 Build 0)  -->
<!DOCTYPE svg PUBLIC "-//W3C//DTD SVG 1.1//EN" "http://www.w3.org/Graphics/SVG/1.1/DTD/svg11.dtd">
<svg version="1.1" id="レイヤー_1" xmlns="http://www.w3.org/2000/svg" xmlns:xlink="http://www.w3.org/1999/xlink" x="0px"
	 y="0px" width="271px" height="198.425px" viewBox="0 0 271 198.425" enable-background="new 0 0 271 198.425"
	 xml:space="preserve">
<g>
	<defs>
		<rect id="SVGID_1_" x="-121" y="-281.185" width="612.288" height="858.897"/>
	</defs>
	<clipPath id="SVGID_2_">
		<use xlink:href="#SVGID_1_"  overflow="visible"/>
	</clipPath>
	<rect x="139.729" y="105.422" clip-path="url(#SVGID_2_)" fill="#FFFFFF" width="61.229" height="61.228"/>
	
		<rect x="139.729" y="105.422" clip-path="url(#SVGID_2_)" fill="none" stroke="#231815" stroke-linecap="round" stroke-linejoin="round" stroke-miterlimit="10" width="61.229" height="61.228"/>
	
		<line clip-path="url(#SVGID_2_)" fill="none" stroke="#231815" stroke-linecap="round" stroke-linejoin="round" stroke-miterlimit="10" x1="145.853" y1="111.546" x2="145.853" y2="160.528"/>
	
		<line clip-path="url(#SVGID_2_)" fill="none" stroke="#231815" stroke-linecap="round" stroke-linejoin="round" x1="194.836" y1="111.546" x2="194.836" y2="152.375"/>
	<g clip-path="url(#SVGID_2_)">
		<defs>
			<rect id="SVGID_3_" x="-121" y="-281.185" width="612.288" height="858.897"/>
		</defs>
		<clipPath id="SVGID_4_">
			<use xlink:href="#SVGID_3_"  overflow="visible"/>
		</clipPath>
		<path clip-path="url(#SVGID_4_)" fill="#231815" d="M194.836,150.581l3.604-2.191l0.081,0.123l-2.333,5.875
			c-0.451,2.048-0.9,4.094-1.352,6.141c-0.45-2.047-0.9-4.093-1.352-6.141l-2.334-5.875l0.063-0.123L194.836,150.581z"/>
		
			<line clip-path="url(#SVGID_4_)" fill="none" stroke="#231815" stroke-linecap="round" stroke-linejoin="round" stroke-miterlimit="10" x1="194.836" y1="111.546" x2="145.852" y2="160.528"/>
		<rect x="1.077" y="11.422" clip-path="url(#SVGID_4_)" fill="#FFFFFF" width="61.229" height="61.228"/>
		
			<rect x="1.077" y="11.422" clip-path="url(#SVGID_4_)" fill="none" stroke="#231815" stroke-linecap="round" stroke-linejoin="round" stroke-miterlimit="10" width="61.229" height="61.228"/>
		
			<line clip-path="url(#SVGID_4_)" fill="none" stroke="#231815" stroke-linecap="round" stroke-linejoin="round" stroke-miterlimit="10" x1="7.201" y1="66.527" x2="56.183" y2="66.527"/>
		
			<line clip-path="url(#SVGID_4_)" fill="none" stroke="#231815" stroke-linecap="round" stroke-linejoin="round" x1="7.201" y1="17.545" x2="48.031" y2="17.545"/>
		<path clip-path="url(#SVGID_4_)" fill="#231815" d="M46.236,17.545l-2.191-3.603l0.123-0.082l5.875,2.334
			c2.047,0.45,4.093,0.9,6.14,1.351c-2.047,0.45-4.093,0.9-6.14,1.351l-5.875,2.334l-0.123-0.062L46.236,17.545z"/>
		
			<line clip-path="url(#SVGID_4_)" fill="none" stroke="#231815" stroke-linecap="round" stroke-linejoin="round" stroke-miterlimit="10" x1="7.201" y1="17.545" x2="56.183" y2="66.527"/>
		<rect x="139.729" y="11.422" clip-path="url(#SVGID_4_)" fill="#FFFFFF" width="61.229" height="61.228"/>
		
			<rect x="139.729" y="11.422" clip-path="url(#SVGID_4_)" fill="none" stroke="#231815" stroke-linecap="round" stroke-linejoin="round" stroke-miterlimit="10" width="61.229" height="61.228"/>
		
			<line clip-path="url(#SVGID_4_)" fill="none" stroke="#231815" stroke-linecap="round" stroke-linejoin="round" stroke-miterlimit="10" x1="145.853" y1="17.545" x2="194.834" y2="17.545"/>
		
			<line clip-path="url(#SVGID_4_)" fill="none" stroke="#231815" stroke-linecap="round" stroke-linejoin="round" x1="145.853" y1="66.527" x2="186.682" y2="66.527"/>
		<path clip-path="url(#SVGID_4_)" fill="#231815" d="M184.887,66.527l-2.191-3.603l0.123-0.082l5.875,2.334
			c2.047,0.45,4.094,0.9,6.141,1.351c-2.047,0.45-4.094,0.9-6.141,1.351l-5.875,2.334l-0.123-0.062L184.887,66.527z"/>
		
			<line clip-path="url(#SVGID_4_)" fill="none" stroke="#231815" stroke-linecap="round" stroke-linejoin="round" stroke-miterlimit="10" x1="145.853" y1="66.527" x2="194.834" y2="17.545"/>
	</g>
	<g clip-path="url(#SVGID_2_)">
		<text transform="matrix(1 0 0 1 22.4883 90.0366)" font-family="'ArialMT'" font-size="14">lbx</text>
	</g>
	<g clip-path="url(#SVGID_2_)">
		<text transform="matrix(1 0 0 1 163.1465 90.0366)" font-family="'ArialMT'" font-size="14">ltx</text>
	</g>
	<g clip-path="url(#SVGID_2_)">
		<defs>
			<rect id="SVGID_5_" x="-121" y="-281.185" width="612.288" height="858.897"/>
		</defs>
		<clipPath id="SVGID_6_">
			<use xlink:href="#SVGID_5_"  overflow="visible"/>
		</clipPath>
		<rect x="70.404" y="11.422" clip-path="url(#SVGID_6_)" fill="#FFFFFF" width="61.229" height="61.228"/>
		
			<rect x="70.404" y="11.422" clip-path="url(#SVGID_6_)" fill="none" stroke="#231815" stroke-linecap="round" stroke-linejoin="round" stroke-miterlimit="10" width="61.229" height="61.228"/>
		
			<line clip-path="url(#SVGID_6_)" fill="none" stroke="#231815" stroke-linecap="round" stroke-linejoin="round" stroke-miterlimit="10" x1="125.509" y1="66.527" x2="76.527" y2="66.527"/>
		
			<line clip-path="url(#SVGID_6_)" fill="none" stroke="#231815" stroke-linecap="round" stroke-linejoin="round" x1="125.509" y1="17.545" x2="84.679" y2="17.545"/>
		<path clip-path="url(#SVGID_6_)" fill="#231815" d="M86.474,17.545l2.191,3.603l-0.123,0.082l-5.875-2.334
			c-2.047-0.45-4.093-0.9-6.14-1.351c2.047-0.45,4.093-0.9,6.14-1.351l5.875-2.334l0.123,0.062L86.474,17.545z"/>
		
			<line clip-path="url(#SVGID_6_)" fill="none" stroke="#231815" stroke-linecap="round" stroke-linejoin="round" stroke-miterlimit="10" x1="125.509" y1="17.545" x2="76.527" y2="66.527"/>
		<rect x="209.055" y="11.422" clip-path="url(#SVGID_6_)" fill="#FFFFFF" width="61.229" height="61.228"/>
		
			<rect x="209.055" y="11.422" clip-path="url(#SVGID_6_)" fill="none" stroke="#231815" stroke-linecap="round" stroke-linejoin="round" stroke-miterlimit="10" width="61.229" height="61.228"/>
		
			<line clip-path="url(#SVGID_6_)" fill="none" stroke="#231815" stroke-linecap="round" stroke-linejoin="round" stroke-miterlimit="10" x1="264.162" y1="17.545" x2="215.178" y2="17.545"/>
		
			<line clip-path="url(#SVGID_6_)" fill="none" stroke="#231815" stroke-linecap="round" stroke-linejoin="round" x1="264.162" y1="66.527" x2="223.33" y2="66.527"/>
		<path clip-path="url(#SVGID_6_)" fill="#231815" d="M225.125,66.527l2.191,3.603l-0.123,0.082l-5.875-2.334
			c-2.047-0.45-4.094-0.9-6.141-1.351c2.047-0.45,4.094-0.9,6.141-1.351l5.875-2.334l0.123,0.062L225.125,66.527z"/>
		
			<line clip-path="url(#SVGID_6_)" fill="none" stroke="#231815" stroke-linecap="round" stroke-linejoin="round" stroke-miterlimit="10" x1="264.162" y1="66.527" x2="215.178" y2="17.545"/>
	</g>
	<g clip-path="url(#SVGID_2_)">
		<text transform="matrix(1 0 0 1 91.0156 90.0366)" font-family="'ArialMT'" font-size="14">rbx</text>
	</g>
	<g clip-path="url(#SVGID_2_)">
		<text transform="matrix(1 0 0 1 233.7871 90.0366)" font-family="'ArialMT'" font-size="14">rtx</text>
	</g>
	<g clip-path="url(#SVGID_2_)">
		<defs>
			<rect id="SVGID_7_" x="-121" y="-281.185" width="612.288" height="858.897"/>
		</defs>
		<clipPath id="SVGID_8_">
			<use xlink:href="#SVGID_7_"  overflow="visible"/>
		</clipPath>
		<rect x="1.078" y="105.421" clip-path="url(#SVGID_8_)" fill="#FFFFFF" width="61.229" height="61.229"/>
		
			<rect x="1.078" y="105.421" clip-path="url(#SVGID_8_)" fill="none" stroke="#231815" stroke-linecap="round" stroke-linejoin="round" stroke-miterlimit="10" width="61.229" height="61.229"/>
		
			<line clip-path="url(#SVGID_8_)" fill="none" stroke="#231815" stroke-linecap="round" stroke-linejoin="round" stroke-miterlimit="10" x1="7.201" y1="160.528" x2="7.201" y2="111.544"/>
		
			<line clip-path="url(#SVGID_8_)" fill="none" stroke="#231815" stroke-linecap="round" stroke-linejoin="round" x1="56.183" y1="160.528" x2="56.183" y2="119.697"/>
		<path clip-path="url(#SVGID_8_)" fill="#231815" d="M56.183,121.492l-3.603,2.191l-0.082-0.123l2.334-5.875
			c0.45-2.047,0.9-4.093,1.351-6.14c0.45,2.047,0.9,4.093,1.351,6.14l2.334,5.875l-0.062,0.123L56.183,121.492z"/>
		
			<line clip-path="url(#SVGID_8_)" fill="none" stroke="#231815" stroke-linecap="round" stroke-linejoin="round" stroke-miterlimit="10" x1="56.183" y1="160.528" x2="7.201" y2="111.544"/>
		<rect x="70.403" y="105.421" clip-path="url(#SVGID_8_)" fill="#FFFFFF" width="61.229" height="61.229"/>
		
			<rect x="70.403" y="105.421" clip-path="url(#SVGID_8_)" fill="none" stroke="#231815" stroke-linecap="round" stroke-linejoin="round" stroke-miterlimit="10" width="61.229" height="61.229"/>
		
			<line clip-path="url(#SVGID_8_)" fill="none" stroke="#231815" stroke-linecap="round" stroke-linejoin="round" stroke-miterlimit="10" x1="125.51" y1="160.528" x2="125.51" y2="111.545"/>
		
			<line clip-path="url(#SVGID_8_)" fill="none" stroke="#231815" stroke-linecap="round" stroke-linejoin="round" x1="76.527" y1="160.528" x2="76.527" y2="119.698"/>
		<path clip-path="url(#SVGID_8_)" fill="#231815" d="M76.527,121.494l-3.603,2.19l-0.082-0.123l2.334-5.875
			c0.45-2.047,0.9-4.093,1.351-6.14c0.45,2.047,0.9,4.093,1.351,6.14l2.334,5.875l-0.062,0.123L76.527,121.494z"/>
		
			<line clip-path="url(#SVGID_8_)" fill="none" stroke="#231815" stroke-linecap="round" stroke-linejoin="round" stroke-miterlimit="10" x1="76.527" y1="160.528" x2="125.51" y2="111.545"/>
		<rect x="209.056" y="105.423" clip-path="url(#SVGID_8_)" fill="#FFFFFF" width="61.229" height="61.227"/>
		
			<rect x="209.056" y="105.423" clip-path="url(#SVGID_8_)" fill="none" stroke="#231815" stroke-linecap="round" stroke-linejoin="round" stroke-miterlimit="10" width="61.229" height="61.227"/>
		
			<line clip-path="url(#SVGID_8_)" fill="none" stroke="#231815" stroke-linecap="round" stroke-linejoin="round" stroke-miterlimit="10" x1="264.162" y1="111.544" x2="264.162" y2="160.53"/>
		
			<line clip-path="url(#SVGID_8_)" fill="none" stroke="#231815" stroke-linecap="round" stroke-linejoin="round" x1="215.18" y1="111.544" x2="215.18" y2="152.377"/>
		<path clip-path="url(#SVGID_8_)" fill="#231815" d="M215.18,150.583l3.604-2.191l0.081,0.123l-2.333,5.875
			c-0.451,2.047-0.9,4.094-1.352,6.141c-0.45-2.047-0.9-4.094-1.352-6.141l-2.333-5.875l0.062-0.123L215.18,150.583z"/>
		
			<line clip-path="url(#SVGID_8_)" fill="none" stroke="#231815" stroke-linecap="round" stroke-linejoin="round" stroke-miterlimit="10" x1="215.18" y1="111.544" x2="264.162" y2="160.53"/>
	</g>
	<g clip-path="url(#SVGID_2_)">
		<text transform="matrix(1 0 0 1 22.4883 184.0366)" font-family="'ArialMT'" font-size="14">lby</text>
	</g>
	<g clip-path="url(#SVGID_2_)">
		<text transform="matrix(1 0 0 1 163.1465 184.0366)" font-family="'ArialMT'" font-size="14">lty</text>
	</g>
	<g clip-path="url(#SVGID_2_)">
		<text transform="matrix(1 0 0 1 91.0186 184.0366)" font-family="'ArialMT'" font-size="14">rby</text>
	</g>
	<g clip-path="url(#SVGID_2_)">
		<text transform="matrix(1 0 0 1 233.79 184.0366)" font-family="'ArialMT'" font-size="14">rty</text>
	</g>
</g>
</svg>
